<?xml version="1.0" encoding="UTF-8" standalone="no"?>
<!--Generator: Xara Designer (www.xara.com), SVG filter version: 3.0.2.3-->

<svg
   xmlns:dc="http://purl.org/dc/elements/1.1/"
   xmlns:cc="http://creativecommons.org/ns#"
   xmlns:rdf="http://www.w3.org/1999/02/22-rdf-syntax-ns#"
   xmlns:svg="http://www.w3.org/2000/svg"
   xmlns="http://www.w3.org/2000/svg"
   xmlns:sodipodi="http://sodipodi.sourceforge.net/DTD/sodipodi-0.dtd"
   xmlns:inkscape="http://www.inkscape.org/namespaces/inkscape"
   version="1.1"
   overflow="visible"
   width="535"
   height="195"
   viewBox="0 0 427.99999 156.00001"
   id="svg2"
   inkscape:version="0.91 r13725"
   sodipodi:docname="ifi-logo.svg"
   style="fill-rule:evenodd;stroke-width:0.50099999;stroke-linejoin:bevel;overflow:visible">
  <metadata
     id="metadata100">
    <rdf:RDF>
      <cc:Work
         rdf:about="">
        <dc:format>image/svg+xml</dc:format>
        <dc:type
           rdf:resource="http://purl.org/dc/dcmitype/StillImage" />
        <dc:title></dc:title>
      </cc:Work>
    </rdf:RDF>
  </metadata>
  <path
      class="logo-maska maska-smej"	
     style="fill:#ff0000;stroke:#ff0000;stroke-width:0.523;stroke-linejoin:miter;stroke-miterlimit:79.84031677"
     
     id="path88"
     d="m 6.897274,91.01745 0,20.1 c 0.255,0.021 0.586,0.093 0.772,0.044 25.898,-6.808 45.419,-30.581 45.612,-55.513 l -0.193,-48.506 -45.997,0 0,48.506 21.838,0 c 0.679,18.956 -7.538,29.572 -22.032,35.369 z" />
  <path
      class="logo-maska maska-joci"
     style="fill:#ff0000;stroke:#ff0000;stroke-width:0.523;stroke-linejoin:miter;stroke-miterlimit:79.84031677"
     
     id="path90"
     d="m 63.137274,7.33445 0,48.316 c 14.853,7.11 23.811,18.024 22.806,35.367 l -23.385,-0.193 0,20.487 c 33.213,-9.645 46.094996,-30.08 46.769996,-55.661 l 0,-48.316 -46.190996,0 z" />
  <path
     style="fill:#000000;stroke:none"
     
     id="path3036"
     class="logo-napis" 
     d="m 120.66946,111.52491 c 7.13117,-0.15046 11.83473,0 11.83473,0 -0.45518,-54.314563 -0.75864,-104.71738 -0.75864,-104.71738 -7.2829,0.15046 -11.683,0.15046 -11.683,0.15046 0.75863,58.527323 0.60691,104.56692 0.60691,104.56692" />
  <path
     style="fill:#000000;stroke:none"
     
     id="path3038"
     class="logo-napis"
     d="m 172.85892,47.280197 c 0.15173,-6.319146 0.45518,-9.930096 0.45518,-9.930096 -5.31045,0 -9.86228,-0.150456 -14.11064,-0.300912 l 0,-1.955928 c 0.15173,-12.186923 1.97246,-17.302439 9.86228,-17.302439 1.36554,0 3.03455,0.150456 4.85527,0.451368 0.30346,-6.92097 0.91037,-9.9301 0.91037,-9.9301 -3.03455,-0.60182 -5.91737,-0.90273 -8.34501,-0.90273 -13.80717,0 -18.20728,9.478744 -18.35901,27.382989 l 0,1.955928 c -4.70354,-0.150456 -7.73809,-0.300912 -7.73809,-0.300912 0.15173,6.770513 0,10.53192 0,10.53192 l 7.58637,0 c 0,28.737066 0.45518,64.244705 0.45518,64.244705 5.76563,-0.15045 10.92437,-0.15045 10.92437,-0.15045 0,0 -0.30346,-36.560836 -0.30346,-63.943799 8.64845,0 13.80719,0.150456 13.80719,0.150456" />
  <path
     style="fill:#000000;stroke:none"
     
     id="path3040"
     class="logo-napis"
     d="m 180.57643,111.07354 c 7.13118,-0.15046 11.53128,-0.15046 11.53128,-0.15046 -0.75863,-45.738574 -0.60691,-74.776627 -0.60691,-74.776627 -7.2829,0.150456 -11.37955,0.150456 -11.37955,0.150456 0.60691,55.217295 0.45518,74.776631 0.45518,74.776631 m 5.31046,-84.55627 c 5.15873,0 7.58637,-3.761405 7.58637,-8.876904 0,-4.814587 -2.42764,-8.425536 -7.43464,-8.425536 -5.007,0 -7.88982,3.310038 -7.88982,8.726448 0,5.265954 2.57937,8.575992 7.73809,8.575992" />
  <path
     style="fill:#000000;stroke:none"
     
     id="path3042"
     class="logo-napis"
     d="m 219.18868,147.63434 c 13.65544,0 25.64191,-7.67326 25.64191,-20.91338 0,-7.97416 -4.55183,-13.39059 -17.75209,-16.85107 -10.62091,-2.70821 -13.04856,-4.21277 -13.04856,-6.92098 0,-1.80547 0.75864,-3.310029 2.42764,-4.814587 0,0 2.42764,0.300912 3.64145,0.300912 11.37954,0 19.87629,-9.629206 19.87629,-31.746215 0,-10.230997 -2.27592,-21.665669 -8.80019,-27.683903 6.52427,-14.443761 11.83474,-25.276607 11.83474,-25.276607 -7.28291,-2.256838 -10.92437,-3.46049 -10.92437,-3.46049 -3.79318,13.240116 -6.37256,21.515213 -7.58637,24.975697 -1.36555,-0.300911 -2.88282,-0.601824 -4.55182,-0.601824 -15.93136,0 -20.78665,17.302454 -20.78665,31.896671 0,14.895128 3.48974,24.975699 10.92437,29.489375 -3.79318,2.708205 -5.76564,6.168701 -5.76564,9.779641 0,4.21276 2.27592,7.5228 6.82773,9.77964 -8.64845,3.76139 -12.89682,10.23101 -12.89682,16.70061 0,9.93009 8.49674,15.34651 20.93838,15.34651 m 0.45517,-57.925553 c -6.22081,0 -9.10364,-7.372359 -9.10364,-22.568399 0,-13.992394 2.88283,-23.320679 9.25537,-23.320679 6.676,0 8.95191,10.231021 8.95191,23.320679 0,15.496952 -3.18628,22.568399 -9.10364,22.568399 m 13.95892,38.968103 c 0,6.62006 -6.67601,10.38146 -13.65546,10.38146 -6.37254,0 -10.62092,-3.00912 -10.62092,-8.12462 0,-4.06231 2.88283,-8.576 9.71055,-12.18694 10.16572,1.95593 14.56583,4.66414 14.56583,9.9301" />
  <path
     style="fill:#000000;stroke:none"
     
     id="path3044"
     class="logo-napis"
     d="m 266.81209,113.17992 c 12.44163,0 19.11764,-11.13376 19.87628,-28.586637 -6.06909,-0.300912 -11.37955,-0.300912 -11.37955,-0.300912 -0.30346,12.788747 -2.7311,20.161099 -8.34501,20.161099 -6.52427,0 -9.25536,-9.027373 -9.55881,-26.630707 16.99344,-0.601823 28.52473,-0.902736 28.52473,-0.902736 1.06209,-24.524302 -2.88283,-42.278134 -19.4211,-42.278134 -15.02099,0 -20.93837,16.098814 -20.93837,38.215823 0,24.22339 4.40011,40.322204 21.24183,40.322204 m -0.60691,-70.112491 c 6.22081,0 8.19328,10.080568 8.04155,26.179343 -6.82772,0.451367 -12.44165,0.601824 -16.84173,0.75228 0.30345,-14.895129 2.73109,-26.931623 8.80018,-26.931623" />
  <path
     style="fill:#000000;stroke:none"
     
     id="path3046"
     class="logo-napis"
     d="m 321.79904,114.08266 c 0,0 6.52428,-0.15046 11.53127,-0.15046 0,0 -0.30345,-52.509148 -0.45518,-60.633764 -0.30346,-11.735555 -3.94492,-18.205175 -12.59337,-18.205175 -7.43463,0 -13.04855,5.566879 -15.93137,12.939216 -0.15173,-5.265955 0,-10.682376 0,-10.682376 -5.31046,0.150456 -9.40709,0.150456 -9.40709,0.150456 0.30345,42.72946 -0.30346,72.068423 -0.30346,72.068423 5.76564,-0.15046 11.37955,0 11.37955,0 0,0 0.15173,-34.153524 0.15173,-46.039536 0.15173,-9.629174 4.24837,-18.054719 10.01401,-18.054719 4.24836,0 5.46218,3.911863 5.46218,10.832831 0,23.772024 0.15173,57.775104 0.15173,57.775104" />
  <path
     style="fill:#000000;stroke:none"
     
     id="path3048"
     class="napis"
     d="m 342.82038,109.56898 c 7.13117,-0.15046 11.37955,-0.15046 11.37955,-0.15046 -0.6069,-45.88903 -0.60691,-71.316139 -0.60691,-71.316139 -7.13118,0.150456 -11.22782,0.150456 -11.22782,0.150456 0.6069,55.217295 0.45518,71.316143 0.45518,71.316143 m 5.31046,-81.246238 c 4.40009,0 7.43463,-3.310038 7.43463,-9.177816 0,-4.664131 -2.27591,-8.575996 -7.43463,-8.575996 -4.85528,0 -7.58637,3.460498 -7.58637,8.876908 0,5.717322 3.03455,8.876904 7.58637,8.876904" />
  <path
     style="fill:#000000;stroke:none"
     
     id="path3050"
     class="logo-napis"
     d="m 370.35653,28.473197 c 4.09664,0 7.43464,-3.310037 7.43464,-9.027359 0,-5.115499 -2.7311,-8.726448 -7.43464,-8.726448 -5.15873,0 -7.58637,3.761405 -7.58637,8.876904 0,5.566866 2.88283,8.876903 7.58637,8.876903 M 350.63197,140.56291 c 1.97245,0.30091 3.79319,0.30091 5.46218,0.30091 13.50372,0 20.17974,-6.92098 20.33147,-20.46201 0.60691,-44.986297 -0.60691,-82.449885 -0.60691,-82.449885 0,0 -3.64146,0.150456 -10.77264,0.150456 0,0 0.45519,49.800964 0.15172,80.193049 -0.15172,7.97415 -2.57936,11.58511 -9.71054,11.58511 -1.21382,0 -2.7311,0 -4.24837,-0.30092 -0.15172,6.77052 -0.60691,10.98329 -0.60691,10.98329" />
  <path
     style="fill:#000000;stroke:none"
     
     id="path3052"
     class="logo-napis"
     d="m 399.1136,111.97627 c 6.52427,0 12.59337,-3.61095 14.86928,-11.13374 -0.15173,7.07143 -0.60691,12.48785 -0.60691,12.48785 6.82772,-0.15046 9.40709,-0.15046 9.40709,-0.15046 0,0 0.60692,-22.267519 -0.30345,-55.819172 -0.45518,-14.142849 -5.91737,-22.267487 -17.7521,-22.267487 -14.11062,0 -20.17974,10.832848 -18.96592,26.931623 6.37255,0 10.92437,-0.150456 10.92437,-0.150456 -0.75864,-11.284188 1.51728,-17.753807 7.58637,-17.753807 5.00699,0 6.52428,4.212777 6.82773,13.541039 0.15173,3.159573 0.30345,8.575992 0.30345,8.575992 -18.9659,4.062308 -28.37301,14.293333 -28.37301,28.135271 0,10.682367 6.67602,17.603347 16.0831,17.603347 m 12.7451,-27.683899 c 0,14.293305 -5.00701,18.806999 -9.71055,18.806999 -5.46218,0 -7.7381,-4.212773 -7.7381,-10.231007 0,-7.97416 4.09666,-15.797883 17.29692,-19.709735 0.15173,3.159572 0.15173,6.319156 0.15173,11.133743" />
</svg>
